# xmcd CD database file
#
# Track frame offsets:
#	150
#	9513
#	21233
#	34564
#	44559
#	57454
#	69635
#	80250
#	93667
#	106814
#	120088
#	130451
#	142827
#	156451
#	169073
#
# Disc length: 2428 seconds
#
# Revision: 0
# Processed by: cddbd v1.5.2PL0 Copyright (c) Steve Scherf et al.
# Submitted via: CDex 1.51
#
DISCID=c3097a0f
DTITLE=Ursprung Buam - Das Beste  CD2
DYEAR=2004
DGENRE=Volksmusik
TTITLE0=Ursprung Buam - Damenwahl hamma heit 
TTITLE1=Ursprung Buam - A bisserl Tirol 
TTITLE2=Ursprung Buam - Die Ursprung Buam hemma 
TTITLE3=Ursprung Buam - Was ist los, liabe Leut' 
TTITLE4=Ursprung Buam - Wia die Schwalben 
TTITLE5=Ursprung Buam - 'S eachte und 's leschte Mal 
TTITLE6=Ursprung Buam - Romeo und Julia 
TTITLE7=Ursprung Buam - I bin a kloaner Trauminit 
TTITLE8=Ursprung Buam - Wia a Blitz, grad a so 
TTITLE9=Ursprung Buam - Lieserl kimm her 
TTITLE10=Ursprung Buam - Zillertaler Ahnentanz 
TTITLE11=Ursprung Buam - 'S Musizieren hat a Schneid 
TTITLE12=Ursprung Buam - 'S weacht scho wearn 
TTITLE13=Ursprung Buam - Von huam giah welln ma nix wissen 
TTITLE14=Ursprung Buam - Heimliche Liebe 
EXTD=YEAR: 2004
EXTT0=
EXTT1=
EXTT2=
EXTT3=
EXTT4=
EXTT5=
EXTT6=
EXTT7=
EXTT8=
EXTT9=
EXTT10=
EXTT11=
EXTT12=
EXTT13=
EXTT14=
PLAYORDER=
